<?xml version="1.0" standalone="no"?>
<svg xmlns:xlink="http://www.w3.org/1999/xlink" id="wave" style="transform:rotate(180deg); transition: 0.3s" viewBox="0 0 1440 140" version="1.1" xmlns="http://www.w3.org/2000/svg"><defs><linearGradient id="sw-gradient-0" x1="0" x2="0" y1="1" y2="0"><stop stop-color="rgba(255, 255, 255, 1)" offset="0%"/><stop stop-color="rgba(210, 218, 224, 1)" offset="100%"/></linearGradient></defs><path style="transform:translate(0, 0px); opacity:1" fill="url(#sw-gradient-0)" d="M0,98L48,95.7C96,93,192,89,288,88.7C384,89,480,93,576,81.7C672,70,768,42,864,25.7C960,9,1056,5,1152,11.7C1248,19,1344,37,1440,42C1536,47,1632,37,1728,46.7C1824,56,1920,84,2016,79.3C2112,75,2208,37,2304,25.7C2400,14,2496,28,2592,49C2688,70,2784,98,2880,107.3C2976,117,3072,107,3168,102.7C3264,98,3360,98,3456,98C3552,98,3648,98,3744,88.7C3840,79,3936,61,4032,60.7C4128,61,4224,79,4320,77C4416,75,4512,51,4608,42C4704,33,4800,37,4896,53.7C4992,70,5088,98,5184,100.3C5280,103,5376,79,5472,77C5568,75,5664,93,5760,88.7C5856,84,5952,56,6048,42C6144,28,6240,28,6336,44.3C6432,61,6528,93,6624,98C6720,103,6816,79,6864,67.7L6912,56L6912,140L6864,140C6816,140,6720,140,6624,140C6528,140,6432,140,6336,140C6240,140,6144,140,6048,140C5952,140,5856,140,5760,140C5664,140,5568,140,5472,140C5376,140,5280,140,5184,140C5088,140,4992,140,4896,140C4800,140,4704,140,4608,140C4512,140,4416,140,4320,140C4224,140,4128,140,4032,140C3936,140,3840,140,3744,140C3648,140,3552,140,3456,140C3360,140,3264,140,3168,140C3072,140,2976,140,2880,140C2784,140,2688,140,2592,140C2496,140,2400,140,2304,140C2208,140,2112,140,2016,140C1920,140,1824,140,1728,140C1632,140,1536,140,1440,140C1344,140,1248,140,1152,140C1056,140,960,140,864,140C768,140,672,140,576,140C480,140,384,140,288,140C192,140,96,140,48,140L0,140Z"/></svg>